<svg width="22" height="22" viewBox="0 0 22 22" fill="none" xmlns="http://www.w3.org/2000/svg">
  <path d="M14.2083 10.0833C14.2083 11.8552 12.7719 13.2917 11 13.2917C9.22805 13.2917 7.79163 11.8552 7.79163 10.0833C7.79163 8.31142 9.22805 6.875 11 6.875C12.7719 6.875 14.2083 8.31142 14.2083 10.0833Z" stroke="#515458" stroke-width="1.8"/>
  <path d="M11 1.8335C15.4647 1.8335 19.25 5.53039 19.25 10.0154C19.25 14.5719 15.403 17.7695 11.8498 19.9438C11.5908 20.09 11.298 20.1668 11 20.1668C10.702 20.1668 10.4092 20.09 10.1503 19.9438C6.60357 17.7483 2.75 14.5877 2.75 10.0154C2.75 5.53039 6.53532 1.8335 11 1.8335Z" stroke="#515458" stroke-width="1.8"/>
</svg>
