<svg width="22" height="22" viewBox="0 0 22 22" fill="none" xmlns="http://www.w3.org/2000/svg">
  <path d="M1.99988 10.4167C1.99988 9.36748 2.49386 8.37951 3.33321 7.75L9.99988 2.75C10.5925 2.30556 11.4073 2.30556 11.9999 2.75L18.6665 7.75C19.5059 8.37951 19.9999 9.36748 19.9999 10.4167V18.3333C19.9999 19.2538 19.2537 20 18.3332 20H14.6753C14.2151 20 13.842 19.6269 13.842 19.1667V16.2667C13.842 15.3462 13.0958 14.6 12.1753 14.6H9.82444C8.90397 14.6 8.15777 15.3462 8.15777 16.2667V19.1667C8.15777 19.6269 7.78468 20 7.32444 20H3.66654C2.74607 20 1.99988 19.2538 1.99988 18.3333L1.99988 10.4167Z" stroke="#15A8F1" stroke-width="1.8"/>
</svg>
