<svg width="114" height="30" viewBox="0 0 114 30" fill="none" xmlns="http://www.w3.org/2000/svg">
  <g clip-path="url(#clip0_1935_6235)">
    <path d="M20.4088 6.26025C21.9283 6.58122 23.4432 6.99522 24.9516 7.50228C23.7839 5.32156 22.2109 3.62741 20.4088 2.40382C19.483 1.77502 18.4964 1.27042 17.4733 0.889611C11.1809 -1.4522 3.50273 0.861737 0 7.4494C5.90529 5.56546 11.7299 5.00183 17.4733 5.75771C18.4547 5.88682 19.4331 6.05448 20.4088 6.26025ZM20.4088 22.7711C19.478 23.0366 18.4976 23.2129 17.4733 23.2859C16.9498 23.3232 16.4131 23.3334 15.8669 23.3149C16.4193 22.8313 16.9547 22.3365 17.4733 21.8316C18.5195 20.8117 19.4986 19.7471 20.4088 18.6388C24.328 13.8661 26.9879 8.26513 28.3892 1.8365C33.458 9.87232 29.117 20.2808 20.4088 22.7711ZM17.4733 29.08C7.30614 28.3261 0.808132 16.899 6.64916 7.57852C8.1983 15.2709 11.8064 21.9402 17.4733 27.5866C17.9914 28.1035 18.5272 28.6114 19.0796 29.1107C18.5352 29.1308 17.9993 29.1197 17.4733 29.08Z" fill="#15A8F1"/>
  </g>
  <path d="M74.788 21.9159L72.7478 24.8924V21.9159H71.23V28.2411H72.7478V25.2893L74.9123 28.2411H76.9526L74.2904 25.0165L76.5794 21.9159H74.788Z" fill="#252525"/>
  <path d="M83.9441 28.2411L81.3814 21.9159H80.1871L77.6244 28.2411H79.3163L80.7843 24.0987L82.2523 28.2411H83.9441Z" fill="#252525"/>
  <path d="M99.5693 28.2411H101.087L103.799 23.925V28.2411H105.342V21.9159H103.799L101.087 26.2318V21.9159H99.5693V28.2411Z" fill="#252525"/>
  <path d="M64.2384 24.4956C63.8651 24.2228 63.2929 24.0739 62.5465 24.0739H62.4718H61.601V21.9159H60.1331V28.2411H62.4967H62.5714C63.3178 28.2411 63.8651 28.0922 64.2633 27.8194C64.7858 27.4473 65.0346 26.8768 65.0346 26.1327C65.0346 25.4133 64.7609 24.8676 64.2384 24.4956ZM63.1934 26.7776C63.0441 26.852 62.8699 26.9016 62.7207 26.9016H62.5714H62.2977H61.6259V25.4382H62.3225C62.422 25.4382 62.4967 25.4382 62.5714 25.4382C62.7704 25.4382 62.9446 25.463 63.0441 25.4877C63.1934 25.5373 63.3178 25.6118 63.3924 25.7358C63.4671 25.8598 63.5168 25.9839 63.5168 26.1575C63.5168 26.4551 63.3924 26.6535 63.1934 26.7776Z" fill="#252525"/>
  <path d="M84.9395 28.2411H86.4571L89.1692 23.925V28.2411H90.6869V21.9159H89.1692L86.4571 26.2318V21.9159H84.9395V28.2411Z" fill="#252525"/>
  <path d="M92.2545 21.9159V28.2411H93.7723V25.6614H96.4843V28.2411H98.0269V21.9159H96.4843V24.3219H93.7723V21.9159H92.2545Z" fill="#252525"/>
  <path d="M41.5222 23.4538C41.7958 23.305 42.1193 23.2306 42.4925 23.2306C42.816 23.2306 43.1146 23.3051 43.3385 23.4291C43.5624 23.5531 43.7615 23.7516 43.9606 24.0492L45.6772 24.0492C45.5777 23.7763 45.5031 23.5779 45.4284 23.4042C45.3537 23.2554 45.2293 23.0817 45.0801 22.933C44.8562 22.6849 44.6074 22.4617 44.3336 22.2881C44.06 22.1144 43.7614 21.9656 43.4628 21.8912C43.1643 21.792 42.8408 21.7423 42.5174 21.7423C41.9202 21.7423 41.348 21.8912 40.8254 22.1889C40.303 22.4865 39.9048 22.8834 39.6062 23.4043C39.3077 23.9252 39.1583 24.4709 39.1583 25.0911C39.1583 25.7112 39.3077 26.2569 39.6062 26.7778C39.9048 27.2987 40.3278 27.7204 40.8503 28.018C41.3727 28.3157 41.945 28.4646 42.5422 28.4646C43.0149 28.4646 43.4628 28.3654 43.9106 28.1669C44.3585 27.9684 44.7317 27.6956 45.0552 27.3235C45.2045 27.1499 45.304 27.001 45.4035 26.8523C45.4782 26.7034 45.5776 26.4802 45.6771 26.2074L43.9605 26.2072C43.6122 26.728 43.1145 26.9761 42.5174 26.9761C41.9949 26.9761 41.547 26.8025 41.1737 26.4304C40.8254 26.0583 40.6513 25.6119 40.6513 25.0661C40.6513 24.7189 40.7259 24.3964 40.8752 24.0987C41.0493 23.8259 41.2484 23.6027 41.5222 23.4538Z" fill="#252525"/>
  <path d="M57.3962 28.2411V23.2553H59.0383V21.9159H54.2363V23.2553H55.8784V28.2411H57.3962Z" fill="#252525"/>
  <path d="M51.7482 22.164C51.2505 21.8663 50.7031 21.7174 50.1309 21.7174H50.1061C49.5089 21.7174 48.9616 21.8663 48.4391 22.164C47.9166 22.4616 47.5184 22.8833 47.2199 23.4042C46.9213 23.9251 46.772 24.4956 46.772 25.1157C46.772 25.711 46.9213 26.2815 47.2199 26.7776C47.5184 27.2984 47.9165 27.6954 48.4391 27.993C48.9616 28.2907 49.5089 28.4396 50.1061 28.4396C50.554 28.4396 51.0018 28.3404 51.4497 28.1419C51.8976 27.9434 52.2708 27.6706 52.5942 27.3234C52.7933 27.1002 52.9923 26.8025 53.1665 26.4056L51.4745 26.4055C51.3252 26.5544 51.151 26.6783 50.9521 26.7776C50.6784 26.9016 50.4047 26.9512 50.1061 26.9512H50.0812C49.5338 26.9512 49.086 26.7527 48.7376 26.3559C48.6131 26.207 48.4887 26.0086 48.3892 25.7357L50.1061 25.7358H53.3157L53.3406 25.587C53.3904 25.2893 53.4153 25.0908 53.4153 24.9668C53.4153 24.3715 53.266 23.8506 52.9674 23.3296C52.6439 22.8585 52.2458 22.4616 51.7482 22.164ZM50.1061 24.3963H48.3644C48.4391 24.1731 48.5635 23.9746 48.6879 23.8259C49.0611 23.4042 49.5339 23.181 50.1061 23.181H50.131C50.6784 23.181 51.1262 23.3794 51.4995 23.7514C51.6488 23.9003 51.7731 24.0987 51.8727 24.3716H50.1061V24.3963Z" fill="#252525"/>
  <path d="M112.234 21.9159H110.442L108.402 24.8924V21.9159H106.884V28.2411H108.402V25.2893L110.592 28.2411H112.607L109.945 25.0165L112.234 21.9159Z" fill="#252525"/>
  <path fill-rule="evenodd" clip-rule="evenodd" d="M112.286 2.16727V3.50861H104.519V8.19834H111.829V9.53963H104.519V14.6864H112.634V16.0277H103.049V2.16727H112.286Z" fill="#252525" stroke="#252525" stroke-width="0.649642"/>
  <path fill-rule="evenodd" clip-rule="evenodd" d="M90.5546 2.16727L97.606 14.1498V2.16727H99.0761V16.0277H97.1095L90.0581 4.05508V16.0277H88.588V2.16727H90.5546Z" fill="#252525" stroke="#252525" stroke-width="0.649642"/>
  <path fill-rule="evenodd" clip-rule="evenodd" d="M84.3765 2.16727V16.0277H82.9065V2.16727H84.3765Z" fill="#252525" stroke="#252525" stroke-width="0.649642"/>
  <path fill-rule="evenodd" clip-rule="evenodd" d="M72.6863 2.16727V14.6864H79.6489V16.0277H71.2163V2.16727H72.6863Z" fill="#252525" stroke="#252525" stroke-width="0.649642"/>
  <path fill-rule="evenodd" clip-rule="evenodd" d="M58.7217 2.16727L65.7735 14.1498V2.16727H67.2435V16.0277H65.2769L58.2251 4.05508V16.0277H56.7551V2.16727H58.7217Z" fill="#252525" stroke="#252525" stroke-width="0.649642"/>
  <path fill-rule="evenodd" clip-rule="evenodd" d="M52.5441 2.16727V16.0277H51.0741V2.16727H52.5441Z" fill="#252525" stroke="#252525" stroke-width="0.649642"/>
  <path fill-rule="evenodd" clip-rule="evenodd" d="M40.8539 2.16727V14.6864H47.8163V16.0277H39.3839V2.16727H40.8539Z" fill="#252525" stroke="#252525" stroke-width="0.649642"/>
  <defs>
    <clipPath id="clip0_1935_6235">
      <rect width="31.3846" height="30" fill="white"/>
    </clipPath>
  </defs>
</svg>
