<svg width="22" height="22" viewBox="0 0 22 22" fill="none" xmlns="http://www.w3.org/2000/svg">
  <path d="M10.9867 14.1243L13.9579 17.5024C15.0588 18.754 15.6092 19.3798 16.1854 19.2275C16.7615 19.0751 16.9591 18.2515 17.3542 16.6043L19.546 7.46708C20.1546 4.93013 20.4589 3.66166 19.7825 3.036C19.1061 2.41034 17.9337 2.87581 15.589 3.80675L4.71057 8.12578C2.83522 8.87035 1.89755 9.24263 1.83802 9.88244C1.83193 9.94788 1.83183 10.0138 1.83772 10.0792C1.89528 10.7192 2.83182 11.0947 4.70488 11.8455C5.55356 12.1857 5.9779 12.3557 6.28215 12.6815C6.31635 12.7181 6.34924 12.7561 6.38075 12.7952C6.66108 13.1435 6.7807 13.6006 7.01995 14.5149L7.46769 16.2259C7.7005 17.1156 7.81691 17.5604 8.12178 17.621C8.42666 17.6817 8.6921 17.3128 9.22299 16.5751L10.9867 14.1243ZM10.9867 14.1243L10.6954 13.8207C10.3638 13.4751 10.198 13.3024 10.198 13.0877C10.198 12.873 10.3638 12.7002 10.6954 12.3547L13.9706 8.94125" stroke="#515458" stroke-width="1.8" stroke-linecap="round" stroke-linejoin="round"/>
</svg>
