<svg width="22" height="22" viewBox="0 0 22 22" fill="none" xmlns="http://www.w3.org/2000/svg">
  <g clip-path="url(#clip0_2380_4603)">
    <path d="M11 20.1663C16.0627 20.1663 20.1667 16.0623 20.1667 10.9997C20.1667 5.93706 16.0627 1.83301 11 1.83301C5.93743 1.83301 1.83337 5.93706 1.83337 10.9997C1.83337 12.2636 2.08919 13.4678 2.55188 14.5634C2.80759 15.1688 2.93544 15.4715 2.95128 15.7003C2.96711 15.9291 2.89977 16.1808 2.76509 16.6841L1.83337 20.1663L5.31558 19.2346C5.81893 19.0999 6.07061 19.0326 6.29939 19.0484C6.52818 19.0643 6.83091 19.1921 7.43636 19.4478C8.53187 19.9105 9.73608 20.1663 11 20.1663Z" stroke="#515458" stroke-width="1.8" stroke-linejoin="round"/>
    <path d="M7.87243 11.3457L8.67079 10.3542C9.00727 9.93627 9.42324 9.54719 9.4558 8.99074C9.46403 8.8502 9.36514 8.21919 9.16736 6.95721C9.08963 6.46125 8.62658 6.4165 8.22551 6.4165C7.70284 6.4165 7.44151 6.4165 7.182 6.53504C6.854 6.68486 6.51726 7.10612 6.44337 7.45906C6.3849 7.7383 6.42835 7.93072 6.51525 8.31555C6.88433 9.95009 7.7502 11.5644 9.09282 12.907C10.4354 14.2496 12.0497 15.1155 13.6842 15.4846C14.0691 15.5714 14.2615 15.6149 14.5407 15.5564C14.8937 15.4825 15.3149 15.1458 15.4648 14.8178C15.5833 14.5583 15.5833 14.297 15.5833 13.7743C15.5833 13.3732 15.5385 12.9102 15.0426 12.8324C13.7806 12.6347 13.1496 12.5358 13.0091 12.544C12.4526 12.5766 12.0635 12.9925 11.6456 13.329L10.6541 14.1274" stroke="#515458" stroke-width="1.8"/>
  </g>
  <defs>
    <clipPath id="clip0_2380_4603">
      <rect width="22" height="22" fill="white"/>
    </clipPath>
  </defs>
</svg>
